<mxfile host="app.diagrams.net" agent="Mozilla/5.0 (Windows NT 10.0; Win64; x64) AppleWebKit/537.36 (KHTML, like Gecko) Chrome/109.0.0.0 Safari/537.36" version="26.1.1">
  <diagram name="Страница — 1" id="NDfYiFxSxV_PJeX2wxCn">
    <mxGraphModel dx="1988" dy="931" grid="1" gridSize="10" guides="1" tooltips="1" connect="1" arrows="1" fold="1" page="1" pageScale="1" pageWidth="827" pageHeight="1169" math="0" shadow="0">
      <root>
        <mxCell id="0" />
        <mxCell id="1" parent="0" />
        <mxCell id="a2V4H0LdFu0M5qWoZMPw-4" value="Наборы фотографий" style="text;html=1;align=center;verticalAlign=middle;resizable=0;points=[];autosize=1;strokeColor=none;fillColor=none;" parent="1" vertex="1">
          <mxGeometry x="910" y="499" width="140" height="30" as="geometry" />
        </mxCell>
        <mxCell id="a2V4H0LdFu0M5qWoZMPw-85" style="edgeStyle=orthogonalEdgeStyle;rounded=0;orthogonalLoop=1;jettySize=auto;html=1;entryX=0.25;entryY=0;entryDx=0;entryDy=0;strokeColor=#006666;" parent="1" source="a2V4H0LdFu0M5qWoZMPw-7" target="a2V4H0LdFu0M5qWoZMPw-63" edge="1">
          <mxGeometry relative="1" as="geometry">
            <Array as="points">
              <mxPoint x="1590" y="460" />
              <mxPoint x="1663" y="460" />
            </Array>
          </mxGeometry>
        </mxCell>
        <mxCell id="a2V4H0LdFu0M5qWoZMPw-7" value="Требования к качеству 3D модели" style="text;html=1;align=center;verticalAlign=middle;whiteSpace=wrap;rounded=0;" parent="1" vertex="1">
          <mxGeometry x="1520" y="400" width="120" height="40" as="geometry" />
        </mxCell>
        <mxCell id="a2V4H0LdFu0M5qWoZMPw-68" style="edgeStyle=orthogonalEdgeStyle;rounded=0;orthogonalLoop=1;jettySize=auto;html=1;strokeColor=#FF6666;" parent="1" source="a2V4H0LdFu0M5qWoZMPw-9" target="a2V4H0LdFu0M5qWoZMPw-63" edge="1">
          <mxGeometry relative="1" as="geometry">
            <Array as="points">
              <mxPoint x="1695" y="400" />
              <mxPoint x="1695" y="400" />
            </Array>
          </mxGeometry>
        </mxCell>
        <mxCell id="a2V4H0LdFu0M5qWoZMPw-9" value="Методы и алгоритмы фотограмметрии" style="text;html=1;align=center;verticalAlign=middle;whiteSpace=wrap;rounded=0;" parent="1" vertex="1">
          <mxGeometry x="1670" y="400" width="120" height="40" as="geometry" />
        </mxCell>
        <mxCell id="a2V4H0LdFu0M5qWoZMPw-101" style="edgeStyle=orthogonalEdgeStyle;rounded=0;orthogonalLoop=1;jettySize=auto;html=1;entryX=0.5;entryY=0;entryDx=0;entryDy=0;strokeColor=#33FF33;" parent="1" source="a2V4H0LdFu0M5qWoZMPw-10" target="a2V4H0LdFu0M5qWoZMPw-76" edge="1">
          <mxGeometry relative="1" as="geometry">
            <mxPoint x="850.8333333333334" y="1090" as="targetPoint" />
            <Array as="points">
              <mxPoint x="2625" y="710" />
            </Array>
          </mxGeometry>
        </mxCell>
        <mxCell id="a2V4H0LdFu0M5qWoZMPw-10" value="Методы и алгоритмы фотометрического стерео" style="text;html=1;align=center;verticalAlign=middle;whiteSpace=wrap;rounded=0;" parent="1" vertex="1">
          <mxGeometry x="2540" y="710" width="170" height="40" as="geometry" />
        </mxCell>
        <mxCell id="a2V4H0LdFu0M5qWoZMPw-28" value="П" style="group" parent="1" vertex="1" connectable="0">
          <mxGeometry x="1060" y="480" width="150" height="68" as="geometry" />
        </mxCell>
        <mxCell id="a2V4H0LdFu0M5qWoZMPw-29" value="Подготовка и группировка&amp;nbsp; фотографий по партиям" style="rounded=0;whiteSpace=wrap;html=1;" parent="a2V4H0LdFu0M5qWoZMPw-28" vertex="1">
          <mxGeometry width="130" height="60" as="geometry" />
        </mxCell>
        <mxCell id="a2V4H0LdFu0M5qWoZMPw-30" value="1" style="text;html=1;align=center;verticalAlign=middle;whiteSpace=wrap;rounded=0;" parent="a2V4H0LdFu0M5qWoZMPw-28" vertex="1">
          <mxGeometry x="90" y="38" width="60" height="30" as="geometry" />
        </mxCell>
        <mxCell id="a2V4H0LdFu0M5qWoZMPw-69" style="edgeStyle=orthogonalEdgeStyle;rounded=0;orthogonalLoop=1;jettySize=auto;html=1;entryX=0.5;entryY=1;entryDx=0;entryDy=0;strokeColor=#99004D;exitX=0.5;exitY=0;exitDx=0;exitDy=0;" parent="1" source="lgzBxTzGzxC5EpiXFaj9-91" target="a2V4H0LdFu0M5qWoZMPw-63" edge="1">
          <mxGeometry relative="1" as="geometry">
            <Array as="points">
              <mxPoint x="1640" y="590" />
              <mxPoint x="1695" y="590" />
            </Array>
            <mxPoint x="430" y="890" as="sourcePoint" />
          </mxGeometry>
        </mxCell>
        <mxCell id="a2V4H0LdFu0M5qWoZMPw-103" style="edgeStyle=orthogonalEdgeStyle;rounded=0;orthogonalLoop=1;jettySize=auto;html=1;entryX=0.5;entryY=1;entryDx=0;entryDy=0;strokeColor=#000066;" parent="1" source="a2V4H0LdFu0M5qWoZMPw-36" target="a2V4H0LdFu0M5qWoZMPw-76" edge="1">
          <mxGeometry relative="1" as="geometry" />
        </mxCell>
        <mxCell id="a2V4H0LdFu0M5qWoZMPw-36" value="&amp;nbsp;Процессор&lt;div&gt;Фотометрического стерео&lt;/div&gt;" style="text;html=1;align=center;verticalAlign=middle;whiteSpace=wrap;rounded=0;" parent="1" vertex="1">
          <mxGeometry x="2481" y="930" width="120" height="40" as="geometry" />
        </mxCell>
        <mxCell id="a2V4H0LdFu0M5qWoZMPw-44" style="edgeStyle=orthogonalEdgeStyle;rounded=0;orthogonalLoop=1;jettySize=auto;html=1;entryX=0.5;entryY=0;entryDx=0;entryDy=0;" parent="1" source="a2V4H0LdFu0M5qWoZMPw-43" target="a2V4H0LdFu0M5qWoZMPw-29" edge="1">
          <mxGeometry relative="1" as="geometry" />
        </mxCell>
        <mxCell id="a2V4H0LdFu0M5qWoZMPw-43" value="Требования к структуре входных данных" style="text;html=1;align=center;verticalAlign=middle;resizable=0;points=[];autosize=1;strokeColor=none;fillColor=none;" parent="1" vertex="1">
          <mxGeometry x="1000" y="410" width="250" height="30" as="geometry" />
        </mxCell>
        <mxCell id="lgzBxTzGzxC5EpiXFaj9-105" style="edgeStyle=orthogonalEdgeStyle;rounded=0;orthogonalLoop=1;jettySize=auto;html=1;entryX=0.5;entryY=1;entryDx=0;entryDy=0;" edge="1" parent="1" source="a2V4H0LdFu0M5qWoZMPw-53" target="a2V4H0LdFu0M5qWoZMPw-29">
          <mxGeometry relative="1" as="geometry" />
        </mxCell>
        <mxCell id="a2V4H0LdFu0M5qWoZMPw-53" value="Скрипты для сортировки и каталогизации" style="text;html=1;align=center;verticalAlign=middle;resizable=0;points=[];autosize=1;strokeColor=none;fillColor=none;" parent="1" vertex="1">
          <mxGeometry x="995" y="585" width="260" height="30" as="geometry" />
        </mxCell>
        <mxCell id="a2V4H0LdFu0M5qWoZMPw-58" style="edgeStyle=orthogonalEdgeStyle;rounded=0;orthogonalLoop=1;jettySize=auto;html=1;exitX=1;exitY=0.5;exitDx=0;exitDy=0;entryX=0;entryY=0.5;entryDx=0;entryDy=0;" parent="1" source="a2V4H0LdFu0M5qWoZMPw-29" target="a2V4H0LdFu0M5qWoZMPw-76" edge="1">
          <mxGeometry relative="1" as="geometry">
            <mxPoint x="1390" y="584" as="targetPoint" />
            <mxPoint x="1260" y="584" as="sourcePoint" />
            <Array as="points">
              <mxPoint x="1190" y="530" />
              <mxPoint x="1470" y="530" />
              <mxPoint x="1470" y="810" />
            </Array>
          </mxGeometry>
        </mxCell>
        <mxCell id="a2V4H0LdFu0M5qWoZMPw-59" value="Датасет для Фотометрического стерео" style="edgeLabel;html=1;align=center;verticalAlign=middle;resizable=0;points=[];" parent="a2V4H0LdFu0M5qWoZMPw-58" vertex="1" connectable="0">
          <mxGeometry x="-0.0799" relative="1" as="geometry">
            <mxPoint x="721" y="-17" as="offset" />
          </mxGeometry>
        </mxCell>
        <mxCell id="a2V4H0LdFu0M5qWoZMPw-60" value="П" style="group" parent="1" vertex="1" connectable="0">
          <mxGeometry x="1630" y="510" width="150" height="68" as="geometry" />
        </mxCell>
        <mxCell id="a2V4H0LdFu0M5qWoZMPw-63" value="Построение базовой 3D модели" style="rounded=0;whiteSpace=wrap;html=1;" parent="a2V4H0LdFu0M5qWoZMPw-60" vertex="1">
          <mxGeometry width="130" height="60" as="geometry" />
        </mxCell>
        <mxCell id="a2V4H0LdFu0M5qWoZMPw-64" value="2" style="text;html=1;align=center;verticalAlign=middle;whiteSpace=wrap;rounded=0;" parent="a2V4H0LdFu0M5qWoZMPw-60" vertex="1">
          <mxGeometry x="90" y="38" width="60" height="30" as="geometry" />
        </mxCell>
        <mxCell id="a2V4H0LdFu0M5qWoZMPw-48" style="edgeStyle=orthogonalEdgeStyle;rounded=0;orthogonalLoop=1;jettySize=auto;html=1;entryX=0;entryY=0.5;entryDx=0;entryDy=0;" parent="1" source="a2V4H0LdFu0M5qWoZMPw-29" target="a2V4H0LdFu0M5qWoZMPw-63" edge="1">
          <mxGeometry relative="1" as="geometry">
            <mxPoint x="1320" y="540" as="targetPoint" />
            <Array as="points">
              <mxPoint x="1600" y="500" />
              <mxPoint x="1600" y="540" />
            </Array>
          </mxGeometry>
        </mxCell>
        <mxCell id="a2V4H0LdFu0M5qWoZMPw-49" value="Датасет для Фотограмметрии (Кросс-поляризованные и нормальные снимки)" style="edgeLabel;html=1;align=center;verticalAlign=middle;resizable=0;points=[];" parent="a2V4H0LdFu0M5qWoZMPw-48" vertex="1" connectable="0">
          <mxGeometry x="-0.0799" relative="1" as="geometry">
            <mxPoint x="-1" y="-17" as="offset" />
          </mxGeometry>
        </mxCell>
        <mxCell id="a2V4H0LdFu0M5qWoZMPw-71" style="edgeStyle=orthogonalEdgeStyle;rounded=0;orthogonalLoop=1;jettySize=auto;html=1;entryX=0.75;entryY=1;entryDx=0;entryDy=0;" parent="1" source="a2V4H0LdFu0M5qWoZMPw-70" target="a2V4H0LdFu0M5qWoZMPw-63" edge="1">
          <mxGeometry relative="1" as="geometry">
            <Array as="points">
              <mxPoint x="1770" y="600" />
              <mxPoint x="1728" y="600" />
            </Array>
          </mxGeometry>
        </mxCell>
        <mxCell id="a2V4H0LdFu0M5qWoZMPw-70" value="Аппаратное обеспечение (GPU, рабочая станция)" style="text;html=1;align=center;verticalAlign=middle;whiteSpace=wrap;rounded=0;" parent="1" vertex="1">
          <mxGeometry x="1710" y="608" width="120" height="40" as="geometry" />
        </mxCell>
        <mxCell id="a2V4H0LdFu0M5qWoZMPw-72" value="П" style="group" parent="1" vertex="1" connectable="0">
          <mxGeometry x="2060" y="636" width="150" height="68" as="geometry" />
        </mxCell>
        <mxCell id="a2V4H0LdFu0M5qWoZMPw-73" value="Рассчёт Локальных Roughness Maps" style="rounded=0;whiteSpace=wrap;html=1;" parent="a2V4H0LdFu0M5qWoZMPw-72" vertex="1">
          <mxGeometry width="130" height="60" as="geometry" />
        </mxCell>
        <mxCell id="a2V4H0LdFu0M5qWoZMPw-74" value="3" style="text;html=1;align=center;verticalAlign=middle;whiteSpace=wrap;rounded=0;" parent="a2V4H0LdFu0M5qWoZMPw-72" vertex="1">
          <mxGeometry x="90" y="38" width="60" height="30" as="geometry" />
        </mxCell>
        <mxCell id="a2V4H0LdFu0M5qWoZMPw-75" value="П" style="group" parent="1" vertex="1" connectable="0">
          <mxGeometry x="2560" y="780" width="150" height="68" as="geometry" />
        </mxCell>
        <mxCell id="a2V4H0LdFu0M5qWoZMPw-76" value="Получение локальных Normal и Displacement Maps" style="rounded=0;whiteSpace=wrap;html=1;" parent="a2V4H0LdFu0M5qWoZMPw-75" vertex="1">
          <mxGeometry width="130" height="60" as="geometry" />
        </mxCell>
        <mxCell id="a2V4H0LdFu0M5qWoZMPw-77" value="4" style="text;html=1;align=center;verticalAlign=middle;whiteSpace=wrap;rounded=0;" parent="a2V4H0LdFu0M5qWoZMPw-75" vertex="1">
          <mxGeometry x="90" y="38" width="60" height="30" as="geometry" />
        </mxCell>
        <mxCell id="a2V4H0LdFu0M5qWoZMPw-92" style="edgeStyle=orthogonalEdgeStyle;rounded=0;orthogonalLoop=1;jettySize=auto;html=1;" parent="1" source="a2V4H0LdFu0M5qWoZMPw-29" target="a2V4H0LdFu0M5qWoZMPw-73" edge="1">
          <mxGeometry relative="1" as="geometry">
            <Array as="points">
              <mxPoint x="1550" y="500" />
              <mxPoint x="1550" y="666" />
            </Array>
          </mxGeometry>
        </mxCell>
        <mxCell id="a2V4H0LdFu0M5qWoZMPw-97" style="edgeStyle=orthogonalEdgeStyle;rounded=0;orthogonalLoop=1;jettySize=auto;html=1;entryX=0.5;entryY=1;entryDx=0;entryDy=0;" parent="1" source="a2V4H0LdFu0M5qWoZMPw-94" target="a2V4H0LdFu0M5qWoZMPw-73" edge="1">
          <mxGeometry relative="1" as="geometry" />
        </mxCell>
        <mxCell id="a2V4H0LdFu0M5qWoZMPw-94" value="Скрипты для операции вычитания" style="text;html=1;align=center;verticalAlign=middle;resizable=0;points=[];autosize=1;strokeColor=none;fillColor=none;" parent="1" vertex="1">
          <mxGeometry x="2015" y="730" width="220" height="30" as="geometry" />
        </mxCell>
        <mxCell id="a2V4H0LdFu0M5qWoZMPw-100" style="edgeStyle=orthogonalEdgeStyle;rounded=0;orthogonalLoop=1;jettySize=auto;html=1;entryX=0.5;entryY=0;entryDx=0;entryDy=0;" parent="1" source="a2V4H0LdFu0M5qWoZMPw-99" target="a2V4H0LdFu0M5qWoZMPw-73" edge="1">
          <mxGeometry relative="1" as="geometry" />
        </mxCell>
        <mxCell id="a2V4H0LdFu0M5qWoZMPw-99" value="Формула вычисления" style="text;html=1;align=center;verticalAlign=middle;resizable=0;points=[];autosize=1;strokeColor=none;fillColor=none;" parent="1" vertex="1">
          <mxGeometry x="2055" y="578" width="140" height="30" as="geometry" />
        </mxCell>
        <mxCell id="a2V4H0LdFu0M5qWoZMPw-107" style="edgeStyle=orthogonalEdgeStyle;rounded=0;orthogonalLoop=1;jettySize=auto;html=1;entryX=0.25;entryY=1;entryDx=0;entryDy=0;" parent="1" source="a2V4H0LdFu0M5qWoZMPw-105" target="a2V4H0LdFu0M5qWoZMPw-76" edge="1">
          <mxGeometry relative="1" as="geometry">
            <Array as="points">
              <mxPoint x="2490" y="857" />
              <mxPoint x="2592" y="857" />
            </Array>
          </mxGeometry>
        </mxCell>
        <mxCell id="a2V4H0LdFu0M5qWoZMPw-105" value="Аппаратное обеспечение" style="text;html=1;align=center;verticalAlign=middle;resizable=0;points=[];autosize=1;strokeColor=none;fillColor=none;" parent="1" vertex="1">
          <mxGeometry x="2380" y="877" width="160" height="30" as="geometry" />
        </mxCell>
        <mxCell id="a2V4H0LdFu0M5qWoZMPw-110" value="П" style="group" parent="1" vertex="1" connectable="0">
          <mxGeometry x="2930" y="862" width="180" height="68" as="geometry" />
        </mxCell>
        <mxCell id="a2V4H0LdFu0M5qWoZMPw-111" value="Объединение карт и формирование итоговой 3D модели" style="rounded=0;whiteSpace=wrap;html=1;" parent="a2V4H0LdFu0M5qWoZMPw-110" vertex="1">
          <mxGeometry width="156" height="60" as="geometry" />
        </mxCell>
        <mxCell id="a2V4H0LdFu0M5qWoZMPw-112" value="5" style="text;html=1;align=center;verticalAlign=middle;whiteSpace=wrap;rounded=0;" parent="a2V4H0LdFu0M5qWoZMPw-110" vertex="1">
          <mxGeometry x="108" y="38" width="72" height="30" as="geometry" />
        </mxCell>
        <mxCell id="a2V4H0LdFu0M5qWoZMPw-116" style="edgeStyle=orthogonalEdgeStyle;rounded=0;orthogonalLoop=1;jettySize=auto;html=1;" parent="1" target="a2V4H0LdFu0M5qWoZMPw-111" edge="1">
          <mxGeometry relative="1" as="geometry">
            <mxPoint x="3008" y="830" as="sourcePoint" />
          </mxGeometry>
        </mxCell>
        <mxCell id="a2V4H0LdFu0M5qWoZMPw-115" value="Методы совмещения карт" style="text;html=1;align=center;verticalAlign=middle;whiteSpace=wrap;rounded=0;" parent="1" vertex="1">
          <mxGeometry x="2978" y="790" width="60" height="30" as="geometry" />
        </mxCell>
        <mxCell id="a2V4H0LdFu0M5qWoZMPw-119" style="edgeStyle=orthogonalEdgeStyle;rounded=0;orthogonalLoop=1;jettySize=auto;html=1;" parent="1" source="a2V4H0LdFu0M5qWoZMPw-117" target="a2V4H0LdFu0M5qWoZMPw-111" edge="1">
          <mxGeometry relative="1" as="geometry" />
        </mxCell>
        <mxCell id="a2V4H0LdFu0M5qWoZMPw-117" value="3D редакторы" style="text;html=1;align=center;verticalAlign=middle;whiteSpace=wrap;rounded=0;" parent="1" vertex="1">
          <mxGeometry x="2978" y="950" width="60" height="30" as="geometry" />
        </mxCell>
        <mxCell id="a2V4H0LdFu0M5qWoZMPw-86" style="edgeStyle=orthogonalEdgeStyle;rounded=0;orthogonalLoop=1;jettySize=auto;html=1;entryX=0;entryY=0.5;entryDx=0;entryDy=0;" parent="1" source="a2V4H0LdFu0M5qWoZMPw-63" target="a2V4H0LdFu0M5qWoZMPw-111" edge="1">
          <mxGeometry relative="1" as="geometry">
            <mxPoint x="1920" y="400" as="targetPoint" />
            <Array as="points">
              <mxPoint x="2880" y="540" />
              <mxPoint x="2880" y="892" />
            </Array>
          </mxGeometry>
        </mxCell>
        <mxCell id="a2V4H0LdFu0M5qWoZMPw-87" value="Предварительная 3D модель" style="edgeLabel;html=1;align=center;verticalAlign=middle;resizable=0;points=[];" parent="a2V4H0LdFu0M5qWoZMPw-86" vertex="1" connectable="0">
          <mxGeometry x="-0.3929" y="-2" relative="1" as="geometry">
            <mxPoint x="-382" y="-2" as="offset" />
          </mxGeometry>
        </mxCell>
        <mxCell id="a2V4H0LdFu0M5qWoZMPw-89" style="edgeStyle=orthogonalEdgeStyle;rounded=0;orthogonalLoop=1;jettySize=auto;html=1;entryX=0;entryY=0.75;entryDx=0;entryDy=0;" parent="1" source="a2V4H0LdFu0M5qWoZMPw-63" target="a2V4H0LdFu0M5qWoZMPw-111" edge="1">
          <mxGeometry relative="1" as="geometry">
            <mxPoint x="1879.9999999999995" y="600" as="targetPoint" />
            <Array as="points">
              <mxPoint x="2860" y="570" />
              <mxPoint x="2860" y="907" />
            </Array>
          </mxGeometry>
        </mxCell>
        <mxCell id="a2V4H0LdFu0M5qWoZMPw-91" value="Diffuse Map" style="edgeLabel;html=1;align=center;verticalAlign=middle;resizable=0;points=[];" parent="a2V4H0LdFu0M5qWoZMPw-89" vertex="1" connectable="0">
          <mxGeometry x="-0.2319" relative="1" as="geometry">
            <mxPoint x="-539" as="offset" />
          </mxGeometry>
        </mxCell>
        <mxCell id="a2V4H0LdFu0M5qWoZMPw-78" style="edgeStyle=orthogonalEdgeStyle;rounded=0;orthogonalLoop=1;jettySize=auto;html=1;entryX=0;entryY=0.25;entryDx=0;entryDy=0;" parent="1" source="a2V4H0LdFu0M5qWoZMPw-73" target="a2V4H0LdFu0M5qWoZMPw-111" edge="1">
          <mxGeometry relative="1" as="geometry">
            <mxPoint x="2380" y="666" as="targetPoint" />
            <Array as="points">
              <mxPoint x="2870" y="666" />
              <mxPoint x="2870" y="877" />
            </Array>
          </mxGeometry>
        </mxCell>
        <mxCell id="a2V4H0LdFu0M5qWoZMPw-82" value="Набор локальных Roughness Map" style="edgeLabel;html=1;align=center;verticalAlign=middle;resizable=0;points=[];" parent="a2V4H0LdFu0M5qWoZMPw-78" vertex="1" connectable="0">
          <mxGeometry x="0.5481" y="-2" relative="1" as="geometry">
            <mxPoint x="-548" y="-76" as="offset" />
          </mxGeometry>
        </mxCell>
        <mxCell id="a2V4H0LdFu0M5qWoZMPw-123" style="edgeStyle=orthogonalEdgeStyle;rounded=0;orthogonalLoop=1;jettySize=auto;html=1;entryX=0;entryY=0;entryDx=0;entryDy=0;" parent="1" source="a2V4H0LdFu0M5qWoZMPw-76" target="a2V4H0LdFu0M5qWoZMPw-111" edge="1">
          <mxGeometry relative="1" as="geometry">
            <Array as="points">
              <mxPoint x="2720" y="810" />
              <mxPoint x="2720" y="862" />
            </Array>
          </mxGeometry>
        </mxCell>
        <mxCell id="a2V4H0LdFu0M5qWoZMPw-124" value="Набор локальных Normal Map" style="edgeLabel;html=1;align=center;verticalAlign=middle;resizable=0;points=[];" parent="a2V4H0LdFu0M5qWoZMPw-123" vertex="1" connectable="0">
          <mxGeometry x="-0.0651" y="-2" relative="1" as="geometry">
            <mxPoint x="25" y="-2" as="offset" />
          </mxGeometry>
        </mxCell>
        <mxCell id="a2V4H0LdFu0M5qWoZMPw-126" style="edgeStyle=orthogonalEdgeStyle;rounded=0;orthogonalLoop=1;jettySize=auto;html=1;entryX=0;entryY=1;entryDx=0;entryDy=0;" parent="1" source="a2V4H0LdFu0M5qWoZMPw-76" target="a2V4H0LdFu0M5qWoZMPw-111" edge="1">
          <mxGeometry relative="1" as="geometry">
            <Array as="points">
              <mxPoint x="2700" y="830" />
              <mxPoint x="2700" y="922" />
            </Array>
          </mxGeometry>
        </mxCell>
        <mxCell id="a2V4H0LdFu0M5qWoZMPw-127" value="Набор локальных Displacement Map" style="edgeLabel;html=1;align=center;verticalAlign=middle;resizable=0;points=[];" parent="1" vertex="1" connectable="0">
          <mxGeometry x="2800.0017002123423" y="920.0011496034647" as="geometry" />
        </mxCell>
        <mxCell id="a2V4H0LdFu0M5qWoZMPw-129" value="&lt;span style=&quot;font-size: 11px; text-wrap-mode: nowrap; background-color: rgb(255, 255, 255);&quot;&gt;Высококачественная 3D модель&lt;/span&gt;" style="text;html=1;align=center;verticalAlign=middle;whiteSpace=wrap;rounded=0;" parent="1" vertex="1">
          <mxGeometry x="3220" y="877" width="190" height="30" as="geometry" />
        </mxCell>
        <mxCell id="a2V4H0LdFu0M5qWoZMPw-131" style="edgeStyle=orthogonalEdgeStyle;rounded=0;orthogonalLoop=1;jettySize=auto;html=1;exitX=1;exitY=0.25;exitDx=0;exitDy=0;" parent="1" source="a2V4H0LdFu0M5qWoZMPw-111" target="a2V4H0LdFu0M5qWoZMPw-129" edge="1">
          <mxGeometry relative="1" as="geometry">
            <Array as="points">
              <mxPoint x="3086" y="890" />
            </Array>
          </mxGeometry>
        </mxCell>
        <mxCell id="lgzBxTzGzxC5EpiXFaj9-4" style="edgeStyle=orthogonalEdgeStyle;rounded=0;orthogonalLoop=1;jettySize=auto;html=1;entryX=0;entryY=0.5;entryDx=0;entryDy=0;" edge="1" parent="1" target="lgzBxTzGzxC5EpiXFaj9-18">
          <mxGeometry relative="1" as="geometry">
            <mxPoint x="300" y="524" as="sourcePoint" />
          </mxGeometry>
        </mxCell>
        <mxCell id="lgzBxTzGzxC5EpiXFaj9-5" value="Наборы фотографий" style="text;html=1;align=center;verticalAlign=middle;resizable=0;points=[];autosize=1;strokeColor=none;fillColor=none;" vertex="1" parent="1">
          <mxGeometry x="244" y="494" width="140" height="30" as="geometry" />
        </mxCell>
        <mxCell id="lgzBxTzGzxC5EpiXFaj9-6" style="edgeStyle=orthogonalEdgeStyle;rounded=0;orthogonalLoop=1;jettySize=auto;html=1;entryX=0;entryY=0;entryDx=0;entryDy=0;strokeColor=#006666;" edge="1" parent="1" source="lgzBxTzGzxC5EpiXFaj9-8" target="lgzBxTzGzxC5EpiXFaj9-18">
          <mxGeometry relative="1" as="geometry">
            <Array as="points">
              <mxPoint x="230" y="454" />
              <mxPoint x="400" y="454" />
            </Array>
          </mxGeometry>
        </mxCell>
        <mxCell id="lgzBxTzGzxC5EpiXFaj9-8" value="Требования к качеству 3D модели" style="text;html=1;align=center;verticalAlign=middle;whiteSpace=wrap;rounded=0;" vertex="1" parent="1">
          <mxGeometry x="190" y="374" width="120" height="40" as="geometry" />
        </mxCell>
        <mxCell id="lgzBxTzGzxC5EpiXFaj9-9" style="edgeStyle=orthogonalEdgeStyle;rounded=0;orthogonalLoop=1;jettySize=auto;html=1;entryX=0.25;entryY=0;entryDx=0;entryDy=0;strokeColor=#FF6666;" edge="1" parent="1" source="lgzBxTzGzxC5EpiXFaj9-11" target="lgzBxTzGzxC5EpiXFaj9-18">
          <mxGeometry relative="1" as="geometry">
            <Array as="points">
              <mxPoint x="380" y="444" />
              <mxPoint x="433" y="444" />
            </Array>
          </mxGeometry>
        </mxCell>
        <mxCell id="lgzBxTzGzxC5EpiXFaj9-11" value="Методы и алгоритмы фотограмметрии" style="text;html=1;align=center;verticalAlign=middle;whiteSpace=wrap;rounded=0;" vertex="1" parent="1">
          <mxGeometry x="340" y="374" width="120" height="40" as="geometry" />
        </mxCell>
        <mxCell id="lgzBxTzGzxC5EpiXFaj9-12" style="edgeStyle=orthogonalEdgeStyle;rounded=0;orthogonalLoop=1;jettySize=auto;html=1;entryX=0.5;entryY=0;entryDx=0;entryDy=0;strokeColor=#33FF33;" edge="1" parent="1" source="lgzBxTzGzxC5EpiXFaj9-14" target="lgzBxTzGzxC5EpiXFaj9-18">
          <mxGeometry relative="1" as="geometry">
            <Array as="points">
              <mxPoint x="545" y="424" />
              <mxPoint x="465" y="424" />
            </Array>
          </mxGeometry>
        </mxCell>
        <mxCell id="lgzBxTzGzxC5EpiXFaj9-14" value="Методы и алгоритмы фотометрического стерео" style="text;html=1;align=center;verticalAlign=middle;whiteSpace=wrap;rounded=0;" vertex="1" parent="1">
          <mxGeometry x="480" y="374" width="170" height="40" as="geometry" />
        </mxCell>
        <mxCell id="lgzBxTzGzxC5EpiXFaj9-17" value="" style="group" vertex="1" connectable="0" parent="1">
          <mxGeometry x="400" y="494" width="150" height="68" as="geometry" />
        </mxCell>
        <mxCell id="lgzBxTzGzxC5EpiXFaj9-18" value="Создание высококачественной 3D-модели" style="rounded=0;whiteSpace=wrap;html=1;" vertex="1" parent="lgzBxTzGzxC5EpiXFaj9-17">
          <mxGeometry width="130" height="60" as="geometry" />
        </mxCell>
        <mxCell id="lgzBxTzGzxC5EpiXFaj9-19" value="0" style="text;html=1;align=center;verticalAlign=middle;whiteSpace=wrap;rounded=0;" vertex="1" parent="lgzBxTzGzxC5EpiXFaj9-17">
          <mxGeometry x="90" y="38" width="60" height="30" as="geometry" />
        </mxCell>
        <mxCell id="lgzBxTzGzxC5EpiXFaj9-23" style="edgeStyle=orthogonalEdgeStyle;rounded=0;orthogonalLoop=1;jettySize=auto;html=1;strokeColor=#99004D;exitX=0.5;exitY=0;exitDx=0;exitDy=0;entryX=0.082;entryY=1.004;entryDx=0;entryDy=0;entryPerimeter=0;" edge="1" parent="1" source="lgzBxTzGzxC5EpiXFaj9-25" target="lgzBxTzGzxC5EpiXFaj9-18">
          <mxGeometry relative="1" as="geometry">
            <mxPoint x="190" y="674" as="sourcePoint" />
            <mxPoint x="440" y="574" as="targetPoint" />
            <Array as="points">
              <mxPoint x="300" y="614" />
              <mxPoint x="411" y="614" />
            </Array>
          </mxGeometry>
        </mxCell>
        <mxCell id="lgzBxTzGzxC5EpiXFaj9-25" value="Фотограмметрический процессор" style="text;html=1;align=center;verticalAlign=middle;whiteSpace=wrap;rounded=0;" vertex="1" parent="1">
          <mxGeometry x="240" y="654" width="120" height="40" as="geometry" />
        </mxCell>
        <mxCell id="lgzBxTzGzxC5EpiXFaj9-26" style="edgeStyle=orthogonalEdgeStyle;rounded=0;orthogonalLoop=1;jettySize=auto;html=1;entryX=0.5;entryY=1;entryDx=0;entryDy=0;strokeColor=#000066;exitX=0.5;exitY=0;exitDx=0;exitDy=0;" edge="1" parent="1" source="lgzBxTzGzxC5EpiXFaj9-28" target="lgzBxTzGzxC5EpiXFaj9-18">
          <mxGeometry relative="1" as="geometry">
            <Array as="points">
              <mxPoint x="420" y="634" />
              <mxPoint x="465" y="634" />
            </Array>
          </mxGeometry>
        </mxCell>
        <mxCell id="lgzBxTzGzxC5EpiXFaj9-28" value="&amp;nbsp;Процессор&lt;div&gt;Фотометрического стерео&lt;/div&gt;" style="text;html=1;align=center;verticalAlign=middle;whiteSpace=wrap;rounded=0;" vertex="1" parent="1">
          <mxGeometry x="360" y="664" width="120" height="40" as="geometry" />
        </mxCell>
        <mxCell id="lgzBxTzGzxC5EpiXFaj9-96" style="edgeStyle=orthogonalEdgeStyle;rounded=0;orthogonalLoop=1;jettySize=auto;html=1;entryX=0;entryY=0.75;entryDx=0;entryDy=0;" edge="1" parent="1" source="lgzBxTzGzxC5EpiXFaj9-29" target="lgzBxTzGzxC5EpiXFaj9-19">
          <mxGeometry relative="1" as="geometry">
            <Array as="points">
              <mxPoint x="525" y="613" />
              <mxPoint x="490" y="613" />
            </Array>
          </mxGeometry>
        </mxCell>
        <mxCell id="lgzBxTzGzxC5EpiXFaj9-29" value="Оборудование (Камеры, компьютеры, освещение, поворотный стол)" style="text;html=1;align=center;verticalAlign=middle;whiteSpace=wrap;rounded=0;" vertex="1" parent="1">
          <mxGeometry x="500" y="664" width="50" height="40" as="geometry" />
        </mxCell>
        <mxCell id="lgzBxTzGzxC5EpiXFaj9-84" value="&lt;span style=&quot;font-size: 11px; text-wrap-mode: nowrap; background-color: rgb(255, 255, 255);&quot;&gt;Высококачественная 3D модель&lt;/span&gt;" style="text;html=1;align=center;verticalAlign=middle;whiteSpace=wrap;rounded=0;" vertex="1" parent="1">
          <mxGeometry x="570" y="509" width="190" height="30" as="geometry" />
        </mxCell>
        <mxCell id="lgzBxTzGzxC5EpiXFaj9-89" style="edgeStyle=orthogonalEdgeStyle;rounded=0;orthogonalLoop=1;jettySize=auto;html=1;" edge="1" parent="1" source="lgzBxTzGzxC5EpiXFaj9-18" target="lgzBxTzGzxC5EpiXFaj9-84">
          <mxGeometry relative="1" as="geometry" />
        </mxCell>
        <mxCell id="lgzBxTzGzxC5EpiXFaj9-90" style="edgeStyle=orthogonalEdgeStyle;rounded=0;orthogonalLoop=1;jettySize=auto;html=1;entryX=0;entryY=0.5;entryDx=0;entryDy=0;" edge="1" parent="1">
          <mxGeometry relative="1" as="geometry">
            <mxPoint x="960" y="523.31" as="sourcePoint" />
            <mxPoint x="1060" y="523.31" as="targetPoint" />
          </mxGeometry>
        </mxCell>
        <mxCell id="lgzBxTzGzxC5EpiXFaj9-91" value="Фотограмметрический процессор" style="text;html=1;align=center;verticalAlign=middle;whiteSpace=wrap;rounded=0;" vertex="1" parent="1">
          <mxGeometry x="1580" y="608" width="120" height="40" as="geometry" />
        </mxCell>
      </root>
    </mxGraphModel>
  </diagram>
</mxfile>
